<?xml version="1.0" encoding="utf-8" ?>
<svg xmlns="http://www.w3.org/2000/svg" xmlns:xlink="http://www.w3.org/1999/xlink" width="969" height="969">
	<defs>
		<linearGradient id="gradient_0" gradientUnits="userSpaceOnUse" x1="206.83167" y1="587.37311" x2="200.71111" y2="402.52292">
			<stop offset="0" stop-color="#871BF8"/>
			<stop offset="1" stop-color="#2173FF"/>
		</linearGradient>
	</defs>
	<path fill="url(#gradient_0)" transform="scale(0.946429 0.946429)" d="M121.731 406.217C140.085 403.918 158.011 405.499 176.41 405.492L282.118 405.428C290.644 410.202 296.988 420.202 303.248 427.496L320.837 447.714C321.255 448.788 321.627 449.236 321.179 450.375C319.915 453.596 307.545 466.875 304.416 470.54L247.181 537.082C232.478 554.111 218.426 571.735 203.078 588.197C186.502 571.932 172.162 553.439 157.39 535.563C147.916 524.098 137.965 513.053 128.331 501.725C116.186 487.444 104.256 472.853 91.4476 459.164C88.9681 456.403 85.4082 453.119 84.1049 449.591C87.4817 443.463 115.765 411.261 121.731 406.217ZM156.09 510.022C163.546 520.375 172.878 529.344 181.548 538.661C188.795 546.449 195.661 554.611 202.599 562.674C203.158 562.141 203.709 561.601 204.253 561.053C212.409 552.833 219.287 543.46 226.865 534.732C234.221 526.261 242.904 518.625 248.751 508.952C250.005 506.878 250.537 504.953 250.474 502.516C249.916 480.742 208.555 473.31 192.28 468.333C187.365 466.83 180.365 465.216 176.716 461.422C175.736 460.402 175.292 459.228 175.463 457.796C175.837 454.664 178.852 452.331 181.051 450.376C193.668 448.551 210.263 448.384 222.046 454.015C227.49 456.616 232.403 460.134 238.129 462.173C242.385 463.688 247.868 464.924 252.081 462.756C256.277 460.596 257.295 456.572 258.675 452.436C261.273 445.099 264.687 436.488 263.672 428.591C259.128 427.523 254.699 426.891 250.039 426.604C237.734 425.844 225.324 426.605 213.001 426.573C201.04 426.542 188.917 425.699 176.985 426.685C172.894 427.023 167.006 427.479 163.457 429.689C154.912 435.008 147.355 453.352 141.55 461.988C140.475 463.702 138.591 466.086 138.166 468.048C134.711 484.008 207.859 492.423 217.006 506.806C218.05 508.448 218.421 510.232 217.927 512.13C217.399 514.155 215.816 515.914 213.989 516.895C201.675 523.502 169.622 513.626 156.09 510.022Z"/>
</svg>
