<?xml version="1.0" encoding="utf-8" ?>
<svg xmlns="http://www.w3.org/2000/svg"
     xmlns:xlink="http://www.w3.org/1999/xlink"
     viewBox="0 0 1024 1024"
     width="200" height="200">
  <defs>
    <linearGradient id="gradient_0"
                    gradientUnits="userSpaceOnUse"
                    x1="207.21109" y1="587.36346"
                    x2="201.22656" y2="402.75583">
      <stop offset="0" stop-color="#8A1BF5"/>
      <stop offset="1" stop-color="#1F74FF"/>
    </linearGradient>
  </defs>
	<path fill="url(#gradient_0)" d="M121.215 406.115C139.163 403.561 157.895 405.437 175.963 405.427C211.451 405.2 246.941 405.203 282.43 405.435C290.874 411.13 297.266 420.816 303.924 428.435C309.972 435.356 316.439 442.084 322.044 449.366C318.958 453.674 315.584 457.768 311.944 461.62C290.44 487.313 268.355 512.491 246.516 537.892C232.068 554.698 218.183 572.014 203.041 588.213C183.584 568.988 167.042 546.568 149.159 525.874C137.595 512.692 126.18 499.381 114.916 485.941C109.896 480.041 103.775 474.034 99.5096 467.596C96.2031 465.437 86.6088 453.488 83.1982 449.766C96.1626 435.587 107.652 419.657 121.215 406.115ZM156.153 510.121C163.667 520.168 172.501 528.99 181.008 538.171C188.322 546.216 195.529 554.358 202.625 562.596C211.063 554.264 218.425 544.456 226.147 535.452C232.625 527.896 246.648 514.783 250.032 506.342C251.312 503.149 250.185 498.487 248.807 495.507C247.174 491.977 244.556 489.045 241.409 486.787C227.32 476.681 200.887 471.96 184.016 465.687C181.536 464.731 178.444 463.713 176.768 461.512C175.898 460.367 175.539 459.029 175.74 457.603C176.219 454.211 179.252 452.104 181.777 450.183C199.039 448.497 216.556 448.317 231.105 459.129C233.065 460.049 235.031 460.987 237.037 461.803C241.782 463.731 247.78 464.615 252.574 462.45C254.94 461.382 255.708 460.449 256.677 458.046C258.574 452.397 265.632 434.097 263.483 429.025C256.548 425.209 224.338 426.961 215.143 426.863C203.128 426.736 191.089 426.069 179.077 426.676C174.535 426.905 169.849 427.375 165.464 428.636C156.943 431.086 144.9 458.979 138.736 466.501C138.503 467.226 138.196 468.042 138.113 468.798C136.496 483.488 208.219 493.639 216.787 506.36C217.951 508.088 218.371 510.098 217.928 512.141C217.505 514.092 216.371 515.531 214.664 516.539C202.128 523.939 169.996 513.435 156.153 510.121Z"/>
	<path fill="#5E43F8" d="M181.777 450.183C199.039 448.497 216.556 448.317 231.105 459.129L230.034 459.674L229.632 462.962L229.111 463.222C228.943 463.058 228.778 462.892 228.608 462.732C228.087 462.24 227.615 461.88 227.018 461.497C226.601 461.896 226.299 462.472 225.766 462.694C224.233 463.33 217.449 462.863 215.291 462.949C204.864 463.368 194.279 463.67 184.016 465.687C181.536 464.731 178.444 463.713 176.768 461.512C175.898 460.367 175.539 459.029 175.74 457.603C176.219 454.211 179.252 452.104 181.777 450.183Z"/>
	<path fill="#B33FD9" d="M698.352 456.209C705.92 455.911 712.756 455.909 719.213 460.549C725.183 464.84 728.491 471.606 729.605 478.725C731.141 488.538 729.971 500.016 723.813 508.142C719.695 513.647 713.472 517.19 706.636 517.922C698.482 518.755 691.655 515.192 685.604 510.168L685.697 522.412C685.8 527.602 685.765 532.794 685.593 537.982C680.546 538.007 675.499 538.075 670.453 538.185C669.173 526.521 670.375 514.144 670.424 502.404C670.487 487.225 669.42 471.832 670.826 456.688C675.556 456.344 680.292 456.456 685.029 456.59C685.178 459.116 685.039 461.671 684.985 464.201C688.76 460.463 693.361 457.906 698.352 456.209ZM701.82 504.997C706.694 503.344 710.151 501.111 712.582 496.412C715.178 491.393 715.423 484.805 713.655 479.48C712.28 475.337 709.515 471.859 705.467 470.084C703.109 469.051 700.773 468.833 698.231 469.031C692.909 471.355 688.995 473.709 686.784 479.459C684.803 484.61 685.025 491.323 687.377 496.318C689.092 499.963 692.122 502.821 695.989 504.06C697.891 504.669 699.832 504.925 701.82 504.997Z"/>
	<path fill="#5E43F8" d="M447.718 456.199C464.874 453.762 480.743 465.734 483.11 482.9C485.477 500.066 473.44 515.886 456.264 518.182C439.188 520.466 423.479 508.513 421.126 491.446C418.773 474.379 430.661 458.622 447.718 456.199ZM454.61 505.913C460.21 503.115 464.296 500.149 466.28 493.861C467.999 488.412 467.537 481.995 464.875 476.918C462.792 472.944 459.397 470.204 455.091 468.955C453.301 468.436 451.61 468.417 449.768 468.513C444.365 470.883 440.578 473.567 438.411 479.366C436.273 485.09 436.834 492.15 439.556 497.589C441.396 501.264 444.357 504.062 448.318 505.285C450.415 505.933 452.434 506.086 454.61 505.913Z"/>
	<defs>
		<linearGradient id="gradient_1" gradientUnits="userSpaceOnUse" x1="380.49905" y1="517.11182" x2="385.10315" y2="434.80997">
			<stop offset="0" stop-color="#5535FB"/>
			<stop offset="1" stop-color="#435EFF"/>
		</linearGradient>
	</defs>
	<path fill="url(#gradient_1)" d="M376.45 434.172C385.667 433.823 394.546 434.007 402.219 439.892C408.123 444.42 411.377 450.941 412.472 458.153C408.698 458.215 400.687 459.191 397.843 456.426C396.073 454.706 394.84 452.648 392.89 451.046C389.107 447.94 384.889 446.499 379.987 447.128C375.523 447.701 372.032 450.3 369.494 453.971C368.322 455.667 367.667 457.429 368.139 459.487C369.736 466.446 388.755 468.948 394.813 470.754C398.278 471.787 401.789 473.148 404.789 475.197C409.671 478.53 412.22 484.001 413.066 489.731C414.072 496.549 412.357 503.445 408.019 508.842C402.431 515.794 394.641 517.603 386.259 518.45C378.67 518.447 370.36 517.716 363.701 513.727C355.363 508.732 352.546 501.006 350.174 492.134C353.725 491.845 357.972 491.043 361.476 491.514C366.289 492.162 368.682 499.401 372.814 501.893C374.269 502.77 376.389 503.083 378.037 503.531C381.022 504.343 384.155 504.275 387.202 503.785C390.618 503.236 394.094 501.969 396.086 498.976C397.024 497.567 397.485 496.147 397.125 494.437C394.168 480.388 370.034 481.202 359.836 474.532C356.441 472.311 353.941 469.224 353.184 465.174C352.041 459.067 353.883 449.593 357.544 444.542C361.892 438.542 369.309 435.294 376.45 434.172Z"/>
	<path fill="#B33FD9" d="M892.669 456.201C901.048 455.781 908.184 456.493 914.742 462.487C920.564 467.808 924.19 476.364 924.491 484.243C924.56 486.061 924.371 489.051 922.773 490.27C919.063 493.1 888.468 490.761 881.997 490.939C882.831 493.962 883.723 496.859 885.473 499.507C887.444 502.492 890.204 504.651 893.781 505.272C900.01 506.353 905.17 502.32 910.017 499.045L918.061 498.99C918.601 499.056 919.143 499.111 919.679 499.204C921.33 499.489 921.791 499.927 922.681 501.231C922.765 502.38 922.633 503.151 922.081 504.18C918.785 510.327 910.884 515.169 904.297 516.915C896.198 519.061 887.1 517.533 879.956 513.163C873.641 509.3 869.605 503.055 867.992 495.905C865.913 486.686 866.993 476.189 872.236 468.181C877.055 460.82 884.408 457.799 892.669 456.201ZM883.521 480.1C888.888 479.997 894.257 479.955 899.625 479.972C902.917 479.975 906.266 480.094 909.547 479.837C907.907 475.524 905.933 471.235 901.489 469.173C899.306 468.16 896.973 467.895 894.588 468.023C890.537 469.847 886.513 471.946 884.699 476.3C884.191 477.518 883.861 478.827 883.521 480.1Z"/>
	<path fill="#5E43F8" d="M585.7 456.184C593.886 455.892 601.522 456.372 608.061 462.051C616.581 469.451 617.314 480.661 618.019 491.115C605.601 491.169 593.123 489.472 580.659 490.614C578.972 490.769 577.168 490.844 576.044 492.183C575.911 494.761 576.889 497.022 578.393 499.094C580.766 502.357 584.33 504.552 588.311 505.205C594.32 506.156 598.467 502.949 602.977 499.558C605.853 499.449 608.746 499.473 611.625 499.442C613.477 499.422 614.559 499.451 615.944 500.745C616.375 502.309 615.987 503.449 615.212 504.809C611.707 510.958 604.283 515.565 597.549 517.201C589.804 519.082 580.872 518.039 574.082 513.783C567.62 509.732 563.778 503.075 562.098 495.789C560.002 486.693 561.158 475.932 566.291 467.992C571.075 460.594 577.531 458.076 585.7 456.184ZM591.625 479.895C595.649 479.931 599.696 480.058 603.716 479.868C601.061 474.899 598.503 470.458 592.721 468.767C591.314 468.355 589.889 468.209 588.433 468.097C584.7 469.573 577.714 473.637 576.107 477.54C575.853 478.156 576.083 478.425 576.267 479.02C579.946 481.348 587.396 480.051 591.625 479.895Z"/>
	<path fill="#B33FD9" d="M830.633 456.223C837.399 455.707 844.817 455.668 850.707 459.53C855.966 462.979 858.134 468.118 859.352 474.028C854.878 474.074 850.404 474.004 845.934 473.816C844.273 472.015 842.956 469.78 841.574 467.756C839.323 467.578 837.021 467.484 834.769 467.69C832.135 467.931 829.078 468.946 827.494 471.235C826.667 472.43 826.687 472.784 826.795 474.151C831.034 480.394 848.38 481.101 855.327 486.315C858.515 488.708 860.643 492.068 861.066 496.064C861.553 500.667 859.719 506.318 856.763 509.856C851.853 515.734 844.43 517.228 837.244 518.064C831.678 518.089 826.28 517.594 821.206 515.091C814.324 511.697 811.285 505.935 808.993 498.996L823.262 499.047C824.578 501.034 825.937 503.08 827.879 504.517C830.746 506.639 834.325 507.356 837.81 506.767C840.481 506.316 843.751 505.034 845.177 502.563C845.794 501.493 845.891 500.258 845.416 499.111C843.291 493.973 823.692 490.627 818.219 487.636C815.108 485.935 812.467 483.375 811.508 479.874C810.285 475.414 811.28 469.943 813.658 466.023C817.492 459.703 823.945 457.858 830.633 456.223Z"/>
	<path fill="#5E43F8" d="M538.212 440.724L542.038 440.966C541.971 446.3 541.986 451.634 542.081 456.967C546.276 457.337 550.688 456.628 554.909 456.449C555.439 460.822 555.507 465.092 555.339 469.491L542.244 469.356C541.577 477.044 539.678 497.049 544.057 502.989C546.191 505.883 551.171 506.142 554.457 506.764C554.54 510.361 554.437 513.974 554.402 517.573C551.129 517.876 547.851 517.899 544.567 517.954C539.54 517.476 534.863 516.292 531.475 512.276C523.797 503.174 526.668 481.169 527.363 469.587L515.196 469.451C514.826 465.14 515.111 461.116 515.751 456.847C519.606 456.373 523.613 456.53 527.5 456.5C527.324 451.449 526.991 446.496 527.852 441.491C531.245 440.948 534.78 440.91 538.212 440.724Z"/>
	<path fill="#5E43F8" d="M494.023 434.136C498.645 433.991 503.302 434.114 507.929 434.12L508.041 486.577C508.036 495.408 508.584 504.603 507.746 513.37C507.584 515.069 507.575 516.089 506.372 517.322C502.121 517.461 497.827 517.167 493.577 517.009C492.407 496.545 492.405 476.135 492.719 455.651C492.822 448.914 492.011 440.547 494.023 434.136Z"/>
	<path fill="#B33FD9" d="M773.552 455.651C774.735 455.741 775.405 455.571 776.117 456.682C778.244 460.002 776.548 467.204 775.732 470.893C770.439 471.154 764.683 471.179 760.575 475.054C752.568 482.608 756.059 506.68 755.938 517.222C752.292 517.602 747.624 518.581 744.024 517.643C742.333 517.203 741.831 516.416 740.983 514.957C739.739 508.389 739.029 460.95 741.75 457.92C743.953 455.467 752.271 456.439 755.419 456.559L755.904 463.805C761.805 459.454 766.156 456.73 773.552 455.651Z"/>
	<path fill="#5E43F8" d="M659.807 455.7C661.198 455.638 662.026 455.411 663.267 456.08C665.07 460.318 663.307 466.223 662.301 470.566C657.89 470.637 653.685 471.3 649.406 472.335C634.98 484.868 646.425 511.145 641.977 516.806C639.273 518.114 633.405 518.342 630.442 517.6C628.981 517.235 628.793 516.982 628.05 515.681C627.748 496.201 628.011 476.675 627.974 457.19C632.709 456.318 637.319 456.284 642.057 457.084L642.578 465.83C647.898 460.246 651.818 456.431 659.807 455.7Z"/>
	<path fill="#B33FD9" d="M784.399 456.025C789.625 455.876 794.855 455.877 800.082 456.028C800.007 466.954 800.028 477.881 800.145 488.807C800.309 498.023 801.249 507.857 799.804 516.965L785.717 517.384C783.177 509.059 783.247 466.086 784.399 456.025Z"/>
	<path fill="#B33FD9" d="M790.699 431.027C791.87 431.095 793.07 431.157 794.201 431.489C796.618 432.2 799.069 433.79 800.206 436.103C801.107 437.935 801.128 439.873 800.42 441.772C799.219 444.995 796.321 446.128 793.406 447.395C792.283 447.303 791.149 447.205 790.056 446.915C787.612 446.265 785.17 444.846 783.977 442.534C783.057 440.751 783.003 438.901 783.658 437.019C784.865 433.556 787.631 432.452 790.699 431.027Z"/>
</svg>
