<?xml version="1.0" encoding="utf-8"?>
<!-- Generator: Adobe Illustrator 27.2.0, SVG Export Plug-In . SVG Version: 6.00 Build 0)  -->
<svg version="1.1" id="Capa_1" xmlns="http://www.w3.org/2000/svg" xmlns:xlink="http://www.w3.org/1999/xlink" x="0px" y="0px" style="fill: white; margin-top: 72px;" xml:space="preserve">
     <g>
	<g>
		<g>
			<path d="M4.81,29.59c-0.45-0.23-0.48-0.35-0.48-1.23c0-1.61,0.13-2.9,0.16-3.42c0.03-0.35,0.1-0.52,0.26-0.52
				c0.19,0,0.23,0.1,0.23,0.36c0,0.29,0,0.74,0.1,1.19c0.48,2.39,2.61,3.29,4.78,3.29c3.1,0,4.61-2.23,4.61-4.29
				c0-2.23-0.94-3.52-3.71-5.81L9.3,17.98c-3.42-2.81-4.19-4.81-4.19-7c0-3.45,2.58-5.81,6.68-5.81c1.26,0,2.19,0.13,3,0.32
				c0.61,0.13,0.87,0.16,1.13,0.16c0.26,0,0.32,0.06,0.32,0.23c0,0.16-0.13,1.22-0.13,3.42c0,0.52-0.06,0.74-0.23,0.74
				c-0.19,0-0.23-0.16-0.26-0.42c-0.03-0.39-0.23-1.26-0.42-1.61c-0.19-0.35-1.06-1.71-4.03-1.71c-2.23,0-3.97,1.39-3.97,3.74
				c0,1.84,0.84,3,3.94,5.42l0.9,0.71c3.81,3,4.71,5,4.71,7.58c0,1.32-0.52,3.78-2.74,5.36c-1.39,0.97-3.13,1.36-4.87,1.36
				C7.62,30.46,6.14,30.24,4.81,29.59z"/>
      <path d="M25.48,16.53c0-4.51,0-5.32-0.06-6.24c-0.06-0.98-0.29-1.45-1.24-1.65c-0.23-0.06-0.72-0.09-0.98-0.09
				c-0.12,0-0.23-0.06-0.23-0.17c0-0.17,0.14-0.23,0.46-0.23c0.66,0,1.44,0,2.08,0.03l1.19,0.06c0.2,0,5.95,0,6.62-0.03
				c0.55-0.03,1.01-0.09,1.24-0.15c0.14-0.03,0.26-0.15,0.4-0.15c0.09,0,0.12,0.12,0.12,0.26c0,0.2-0.15,0.55-0.23,1.36
				c-0.03,0.29-0.09,1.56-0.15,1.91c-0.03,0.14-0.09,0.32-0.2,0.32c-0.17,0-0.23-0.15-0.23-0.38c0-0.2-0.03-0.69-0.17-1.04
				c-0.2-0.46-0.49-0.81-2.05-0.98c-0.49-0.06-3.64-0.09-3.96-0.09c-0.12,0-0.17,0.09-0.17,0.29v7.98c0,0.2,0.03,0.29,0.17,0.29
				c0.38,0,3.93,0,4.6-0.06c0.69-0.06,1.1-0.12,1.36-0.41c0.2-0.23,0.32-0.38,0.43-0.38c0.09,0,0.15,0.06,0.15,0.23
				c0,0.17-0.15,0.66-0.23,1.62c-0.06,0.58-0.12,1.65-0.12,1.85c0,0.23,0,0.55-0.2,0.55c-0.14,0-0.2-0.12-0.2-0.26
				c0-0.29,0-0.58-0.12-0.95c-0.12-0.4-0.38-0.9-1.5-1.01c-0.78-0.09-3.64-0.14-4.13-0.14c-0.14,0-0.2,0.09-0.2,0.2v2.54
				c0,0.98-0.03,4.34,0,4.94c0.09,1.99,0.52,2.37,3.35,2.37c0.75,0,2.02,0,2.78-0.32c0.75-0.32,1.1-0.9,1.3-2.08
				c0.06-0.32,0.12-0.43,0.26-0.43c0.17,0,0.17,0.23,0.17,0.43c0,0.23-0.23,2.2-0.38,2.8c-0.2,0.75-0.43,0.75-1.56,0.75
				c-2.17,0-3.76-0.06-4.89-0.09c-1.13-0.06-1.82-0.09-2.25-0.09c-0.06,0-0.55,0-1.16,0.03c-0.58,0-1.24,0.06-1.68,0.06
				c-0.32,0-0.46-0.06-0.46-0.23c0-0.09,0.06-0.17,0.23-0.17c0.26,0,0.61-0.06,0.87-0.11c0.58-0.12,0.72-0.75,0.84-1.59
				c0.14-1.21,0.14-3.5,0.14-6.27V16.53z"/>
      <path d="M44.03,27.28c-2.8-2.51-3.5-5.81-3.5-8.56c0-1.94,0.67-5.32,3.24-7.89c1.73-1.74,4.37-3.09,8.82-3.09
				c1.16,0,2.78,0.09,4.19,0.35c1.1,0.2,2.02,0.37,2.95,0.43c0.32,0.03,0.38,0.14,0.38,0.32c0,0.23-0.09,0.58-0.14,1.62
				c-0.06,0.95-0.06,2.54-0.09,2.98c-0.03,0.43-0.09,0.61-0.26,0.61c-0.2,0-0.23-0.2-0.23-0.61c0-1.13-0.46-2.31-1.22-2.95
				c-1.01-0.87-3.24-1.65-5.78-1.65c-3.84,0-5.64,1.13-6.65,2.11c-2.11,2.02-2.6,4.6-2.6,7.55c0,5.52,4.25,10.58,10.44,10.58
				c2.17,0,3.87-0.26,5.03-1.45c0.61-0.64,0.98-1.91,1.07-2.43c0.06-0.32,0.12-0.43,0.29-0.43c0.14,0,0.2,0.2,0.2,0.43
				c0,0.2-0.35,2.72-0.64,3.7c-0.17,0.55-0.23,0.61-0.75,0.84c-1.16,0.46-3.35,0.66-5.2,0.66C49.23,30.41,46.31,29.34,44.03,27.28z"
      />
      <path d="M66.08,16.53c0-4.51,0-5.32-0.06-6.24c-0.06-0.98-0.29-1.45-1.24-1.65c-0.23-0.06-0.72-0.09-0.98-0.09
				c-0.12,0-0.23-0.06-0.23-0.17c0-0.17,0.14-0.23,0.46-0.23c1.3,0,3.12,0.09,3.27,0.09c0.32,0,2.52-0.09,3.41-0.09
				c1.82,0,3.76,0.17,5.29,1.27c0.72,0.52,1.99,1.94,1.99,3.93c0,2.14-0.9,4.28-3.5,6.68c2.37,3.04,4.34,5.61,6.01,7.4
				c1.56,1.65,2.8,1.97,3.53,2.08c0.55,0.09,0.95,0.09,1.13,0.09c0.14,0,0.26,0.09,0.26,0.17c0,0.17-0.17,0.23-0.69,0.23h-2.05
				c-1.62,0-2.34-0.14-3.09-0.55c-1.24-0.66-2.26-2.08-3.9-4.25c-1.21-1.59-2.57-3.53-3.15-4.28c-0.12-0.12-0.2-0.17-0.37-0.17
				l-3.56-0.06c-0.14,0-0.2,0.09-0.2,0.23v0.69c0,2.78,0,5.06,0.15,6.27c0.09,0.84,0.26,1.47,1.13,1.59c0.4,0.06,1.04,0.11,1.3,0.11
				c0.17,0,0.23,0.09,0.23,0.17c0,0.14-0.15,0.23-0.46,0.23c-1.59,0-3.41-0.09-3.56-0.09c-0.03,0-1.85,0.09-2.72,0.09
				C64.15,30,64,29.94,64,29.77c0-0.09,0.06-0.17,0.23-0.17c0.26,0,0.61-0.06,0.87-0.11c0.58-0.12,0.72-0.75,0.84-1.59
				c0.14-1.21,0.14-3.5,0.14-6.27V16.53z M68.39,19.04c0,0.14,0.06,0.26,0.2,0.35c0.43,0.26,1.76,0.46,3.04,0.46
				c0.69,0,1.5-0.09,2.17-0.55c1.01-0.69,1.76-2.26,1.76-4.45c0-3.61-1.91-5.78-5-5.78c-0.87,0-1.65,0.09-1.94,0.17
				c-0.14,0.06-0.23,0.17-0.23,0.35V19.04z"/>
      <path d="M89.17,16.53c0-4.51,0-5.32-0.06-6.24c-0.06-0.98-0.29-1.45-1.24-1.65c-0.23-0.06-0.72-0.09-0.98-0.09
				c-0.11,0-0.23-0.06-0.23-0.17c0-0.17,0.14-0.23,0.46-0.23c0.67,0,1.45,0,2.08,0.03l1.18,0.06c0.2,0,5.96,0,6.62-0.03
				c0.55-0.03,1.01-0.09,1.24-0.15c0.14-0.03,0.26-0.15,0.4-0.15c0.09,0,0.12,0.12,0.12,0.26c0,0.2-0.14,0.55-0.23,1.36
				c-0.03,0.29-0.09,1.56-0.14,1.91c-0.03,0.14-0.09,0.32-0.2,0.32c-0.17,0-0.23-0.15-0.23-0.38c0-0.2-0.03-0.69-0.17-1.04
				c-0.2-0.46-0.49-0.81-2.05-0.98c-0.49-0.06-3.64-0.09-3.96-0.09c-0.12,0-0.17,0.09-0.17,0.29v7.98c0,0.2,0.03,0.29,0.17,0.29
				c0.37,0,3.93,0,4.6-0.06c0.69-0.06,1.1-0.12,1.36-0.41c0.2-0.23,0.32-0.38,0.43-0.38c0.09,0,0.15,0.06,0.15,0.23
				c0,0.17-0.15,0.66-0.23,1.62c-0.06,0.58-0.11,1.65-0.11,1.85c0,0.23,0,0.55-0.2,0.55c-0.15,0-0.2-0.12-0.2-0.26
				c0-0.29,0-0.58-0.12-0.95c-0.12-0.4-0.38-0.9-1.5-1.01c-0.78-0.09-3.64-0.14-4.13-0.14c-0.14,0-0.2,0.09-0.2,0.2v2.54
				c0,0.98-0.03,4.34,0,4.94c0.09,1.99,0.52,2.37,3.35,2.37c0.75,0,2.02,0,2.78-0.32c0.75-0.32,1.1-0.9,1.3-2.08
				c0.06-0.32,0.12-0.43,0.26-0.43c0.17,0,0.17,0.23,0.17,0.43c0,0.23-0.23,2.2-0.38,2.8c-0.2,0.75-0.43,0.75-1.56,0.75
				c-2.17,0-3.76-0.06-4.88-0.09c-1.13-0.06-1.82-0.09-2.26-0.09c-0.06,0-0.55,0-1.16,0.03c-0.58,0-1.24,0.06-1.68,0.06
				c-0.32,0-0.46-0.06-0.46-0.23c0-0.09,0.06-0.17,0.23-0.17c0.26,0,0.61-0.06,0.87-0.11c0.58-0.12,0.72-0.75,0.84-1.59
				c0.14-1.21,0.14-3.5,0.14-6.27V16.53z"/>
      <path d="M113.68,21.62c0,2.78,0,5.06,0.14,6.27c0.09,0.84,0.26,1.47,1.13,1.59c0.4,0.06,1.04,0.11,1.3,0.11
				c0.17,0,0.23,0.09,0.23,0.17c0,0.14-0.14,0.23-0.46,0.23c-1.59,0-3.41-0.09-3.56-0.09c-0.15,0-1.97,0.09-2.83,0.09
				c-0.32,0-0.46-0.06-0.46-0.23c0-0.09,0.06-0.17,0.23-0.17c0.26,0,0.61-0.06,0.87-0.11c0.58-0.12,0.72-0.75,0.84-1.59
				c0.14-1.21,0.14-3.5,0.14-6.27V9.39l-4.28,0.06c-1.79,0.03-2.49,0.23-2.95,0.92c-0.32,0.49-0.4,0.69-0.49,0.9
				c-0.09,0.23-0.17,0.29-0.29,0.29c-0.09,0-0.15-0.09-0.15-0.26c0-0.29,0.58-2.78,0.64-3.01c0.06-0.17,0.17-0.55,0.29-0.55
				c0.2,0,0.49,0.29,1.27,0.35c0.84,0.09,1.94,0.14,2.28,0.14h10.84c0.92,0,1.59-0.06,2.05-0.14c0.43-0.06,0.69-0.15,0.81-0.15
				c0.14,0,0.14,0.17,0.14,0.35c0,0.87-0.09,2.86-0.09,3.18c0,0.26-0.09,0.38-0.2,0.38c-0.14,0-0.2-0.09-0.23-0.49l-0.03-0.32
				c-0.09-0.87-0.78-1.53-3.56-1.59l-3.64-0.06V21.62z"/>
		</g>
	</g>
       <g>
		<path d="M34.84,59.88c-0.39,0-0.72-0.03-1.11-0.06c-2.18-0.15-3.35-0.72-4.66-2.57c-1.11-1.52-2.18-3.41-3.14-4.93
			c-0.6-0.96-0.99-1.14-2.51-1.14h-1.05v4.69c0,2.54,0.33,2.69,2.72,2.93v0.84h-7.98V58.8c2.48-0.27,2.69-0.39,2.69-2.93V43.95
			c0-2.54-0.33-2.63-2.69-2.9v-0.84h7.62c2.18,0,3.65,0.27,4.78,1.02c1.23,0.78,2.03,2.12,2.03,3.94c0,2.57-1.64,4.18-3.85,5.14
			c0.54,0.93,1.82,2.93,2.72,4.27c1.11,1.58,1.67,2.33,2.36,3.08c0.81,0.87,1.49,1.2,2.18,1.37L34.84,59.88z M23.82,50.17
			c1.55,0,2.54-0.24,3.29-0.87c1.17-0.87,1.64-2.06,1.64-3.67c0-3.2-2.12-4.36-4.42-4.36c-0.87,0-1.37,0.12-1.58,0.3
			c-0.27,0.21-0.36,0.51-0.36,1.28v7.32H23.82z"/>
         <path d="M45.96,39.8c5.11,0,9.68,3.91,9.68,9.86c0,6.42-4.36,10.43-9.86,10.43c-5.74,0-9.92-4.36-9.92-9.98
			C35.86,44.76,39.65,39.8,45.96,39.8z M45.36,40.91c-3.35,0-6.39,2.81-6.39,8.4c0,5.56,3.05,9.65,7.29,9.65
			c3.62,0,6.33-2.69,6.33-8.46C52.59,44.22,49.27,40.91,45.36,40.91z"/>
         <path d="M69.06,39.8c5.11,0,9.68,3.91,9.68,9.86c0,6.42-4.36,10.43-9.86,10.43c-5.74,0-9.92-4.36-9.92-9.98
			C58.96,44.76,62.75,39.8,69.06,39.8z M68.46,40.91c-3.35,0-6.39,2.81-6.39,8.4c0,5.56,3.05,9.65,7.29,9.65
			c3.62,0,6.33-2.69,6.33-8.46C75.69,44.22,72.37,40.91,68.46,40.91z"/>
         <path d="M98.25,59.64V58.8c2.45-0.24,2.54-0.42,2.51-3.61L100.79,43c-2.45,5.47-6.39,14.01-7.44,16.64h-0.78
			c-1.02-2.72-4.39-10.93-6.66-16.34c-0.51,10.46-0.54,12.82-0.54,13.38c0.03,1.67,0.78,1.91,2.81,2.12v0.84H81.1V58.8
			c1.73-0.18,2.45-0.54,2.69-2.15c0.18-1.31,0.21-2.39,0.99-13.3c0.12-1.55-0.18-2.06-2.81-2.3v-0.84h5.2l6.6,15.15l7.08-15.15h5.23
			v0.84c-2.57,0.3-2.9,0.57-2.84,2.66l0.12,11.47c0.12,3.2,0.21,3.35,2.84,3.61v0.84H98.25z"/>
	</g>
</g>
</svg>
