<svg width="100" id="Слой_1" data-name="Слой 1" xmlns="http://www.w3.org/2000/svg" viewBox="0 0 107.46 31.34">
  <defs>
    <style>.cls-1 {
      fill: #794a19;
    }</style>
  </defs>
  <title>crafti</title>
  <path class="cls-1"
        d="M16.32,9.06a7.9,7.9,0,0,1,5.18,1.79,8.58,8.58,0,0,1,2.91,5.07l5.9-1.72a13.47,13.47,0,0,0-5-7.83,14.32,14.32,0,0,0-9-2.95A14.32,14.32,0,0,0,5.81,7.69,14.32,14.32,0,0,0,1.54,18.2,14.27,14.27,0,0,0,5.81,28.66a14.28,14.28,0,0,0,10.51,4.27,14.32,14.32,0,0,0,9-3,13.57,13.57,0,0,0,5-8l-5.9-1.46a8.61,8.61,0,0,1-2.89,5.07,7.91,7.91,0,0,1-5.2,1.8,8.11,8.11,0,0,1-6.14-2.63A9.16,9.16,0,0,1,7.7,18.2a9.13,9.13,0,0,1,2.48-6.51A8.07,8.07,0,0,1,16.32,9.06Z"
        transform="translate(-1.54 -1.93)"/>
  <path class="cls-1"
        d="M38.44,16.85V13.61h-6V32.33h6V26.48q0-7,6.46-7H46l.26-6a5.52,5.52,0,0,0-1.34-.14A7.33,7.33,0,0,0,38.44,16.85Z"
        transform="translate(-1.54 -1.93)"/>
  <path class="cls-1"
        d="M62.43,15.47a8.33,8.33,0,0,0-5.82-2.05,8.6,8.6,0,0,0-6.47,2.8,9.89,9.89,0,0,0-2.67,7.12,9.91,9.91,0,0,0,2.67,7.15,8.66,8.66,0,0,0,6.47,2.78,8.33,8.33,0,0,0,5.82-2.06v1.5h6V14h-6ZM61.07,26.83a4.4,4.4,0,0,1-3.23,1.36,4.24,4.24,0,0,1-3.24-1.34,4.88,4.88,0,0,1-1.27-3.51,4.9,4.9,0,0,1,1.27-3.49,4.26,4.26,0,0,1,3.24-1.36,4.38,4.38,0,0,1,3.23,1.38,4.73,4.73,0,0,1,1.36,3.47A4.72,4.72,0,0,1,61.07,26.83Z"
        transform="translate(-1.54 -1.93)"/>
  <path class="cls-1"
        d="M93.37,5.47l-6,1.76v6.38H78.81v-4a2.61,2.61,0,0,1,.66-1.86A2.24,2.24,0,0,1,81.2,7a3.94,3.94,0,0,1,1.72.37l1.64-4.32a7.2,7.2,0,0,0-4-1.16A7.47,7.47,0,0,0,75,4.06a7.49,7.49,0,0,0-2.13,5.55v4H69.64v4.73h3.24v14h5.93v-14H87.4v7.47A7,7,0,0,0,89.28,31a7,7,0,0,0,5.2,1.88,10.77,10.77,0,0,0,5.12-1.38l-1.38-4.7a5.4,5.4,0,0,1-2.73.75,2,2,0,0,1-1.56-.62,2.45,2.45,0,0,1-.56-1.73V18.34H100V13.61H93.37Z"
        transform="translate(-1.54 -1.93)"/>
  <path class="cls-1"
        d="M105.53,10.92A3.38,3.38,0,0,0,108,10a3.21,3.21,0,0,0,1-2.39,3.23,3.23,0,0,0-1-2.37,3.35,3.35,0,0,0-2.48-1,3.29,3.29,0,0,0-2.46,1,3.25,3.25,0,0,0-1,2.37,3.23,3.23,0,0,0,1,2.41A3.38,3.38,0,0,0,105.53,10.92Z"
        transform="translate(-1.54 -1.93)"/>
  <rect class="cls-1" x="101" y="11.68" width="5.97" height="18.73"/>
</svg>
