<?xml version="1.0" encoding="UTF-8"?>
<svg id="Layer_1" data-name="Layer 1" xmlns="http://www.w3.org/2000/svg" viewBox="0 0 80 80">
  <defs>
    <style>
      .cls-1 {
        fill: #202d49;
        stroke-width: 0px;
      }
    </style>
  </defs>
  <path class="cls-1" d="m68.51,44.31c-2.41,12.84-14.93,24.88-28.33,25.36-5.56.2-10.22-1.63-11.39-2.12-3.64-1.5-6.96-3.81-9.92-6.91-7.08-7.41-9.63-16.26-7.72-26.2,2.95-15.4,17.32-26.03,33.9-22.97,5.6,1.03,9.54,3.33,11.15,4.39,1.78,1.16,7.5,5.01,10.65,12.41.84,1.98,1.29,3.72,1.55,4.95h7.13c-.04-.28-.1-.72-.2-1.27-.81-4.49-2.59-7.64-3.45-9.18-5.61-9.93-14.71-14.77-14.71-14.77-4.64-2.49-9.73-3.81-15-4.09-13.76.06-23.31,4.44-30.55,13.49C-1.41,33.71,1.95,56.47,16.67,68.38c7.69,6.22,16.5,8.87,26.25,8.13,8.98-.68,16.64-4.44,22.96-10.9,6.87-7.01,9.92-15.3,9.98-25.05h0v-2.49h-6.94c.07,1.29.1,3.54-.4,6.23Z"/>
  <path class="cls-1" d="m49.89,38.1h0c-3.62,0-5.79,0-9.41,0v6.92l10.31-.05c.57.06.63.31.23,1.09-2.6,4.97-8.23,7.62-13.71,6.4-4.97-1.1-8.91-5.18-9.72-10.04-.84-5.07,1.56-10.26,5.91-12.78,4.97-2.86,10.89-1.8,14.3,1.09.99.84,1.67,1.75,2.11,2.47h8.22c-.65-1.75-1.92-4.44-4.43-6.94,0,0-.87-.86-1.79-1.57-7.88-6.03-18.93-5.2-25.95,1.89-5.36,5.41-6.95,13.99-3.94,21.33,2.92,7.13,10.05,12.02,17.66,12.1.08,0,.18,0,.3,0,0,0,3.66-.02,7.21-1.56,4.32-1.87,9.48-7.27,11.1-14.41.56-2.47.56-4.57.5-5.87-1.53-.04-3.07-.06-4.64-.08-1.43-.01-2.84-.01-4.23,0Z"/>
</svg>
