<?xml version="1.0" encoding="utf-8"?>
<!-- Generator: Adobe Illustrator 28.0.0, SVG Export Plug-In . SVG Version: 6.00 Build 0)  -->
<svg version="1.1" id="Layer_1" xmlns="http://www.w3.org/2000/svg" xmlns:xlink="http://www.w3.org/1999/xlink" x="0px" y="0px"
	 viewBox="0 0 1056 643.4" style="enable-background:new 0 0 1056 643.4;" xml:space="preserve">
<style type="text/css">
	.st0{fill:#F2F1EF;}
	.st1{fill:#202D49;}
	.st2{fill:#646565;}
</style>
<rect x="-3.19" y="-2.12" class="st0" width="1062.26" height="648.59"/>
<g>
	<path class="st1" d="M464.92,249.39L464.92,249.39c-10.98-2.64-12.18-4.59-12.18-8.11c0-5.46,4.87-6.6,8.95-6.6
		c6.4,0,9.74,2.41,10.8,7.81l0.32,1.61h12.98l-0.22-2.2c-0.9-8.85-7.56-18.32-23.57-18.32c-13.7,0-22.54,7.3-22.54,18.59
		c0,9.92,6.09,15.43,21.01,19.03c12.29,2.96,13.24,5.97,13.24,9.91c0,5.04-3.56,7.59-10.58,7.59c-7.41,0-11.52-2.91-12.94-9.17
		l-0.35-1.56h-13.01l0.3,2.27c0.79,5.87,4.84,19.54,25.38,19.54c18.05,0,24.49-10.15,24.49-19.65
		C486.99,259.2,480.59,253.19,464.92,249.39z"/>
	<polygon class="st1" points="582.96,224.46 569.97,224.46 569.97,289.01 612.8,289.01 614.61,277.41 582.96,277.41 	"/>
	<path class="st1" d="M658.38,262.83c0,13.74-6.5,15.59-12.85,15.59c-8.63,0-13.01-5.24-13.01-15.59v-38.37h-13.08v38.42
		c0,17.35,9.21,26.91,25.92,26.91c17.05,0,26.06-9.48,26.06-27.42v-37.91h-13.04V262.83z"/>
	<polygon class="st1" points="679.08,236.07 698.42,236.07 698.42,289.01 711.46,289.01 711.46,236.07 730.81,236.07 730.81,224.46 
		679.08,224.46 	"/>
	<rect x="737.98" y="224.46" class="st1" width="12.99" height="64.56"/>
	<path class="st1" d="M792.69,223.59c-18.38,0-30.72,13.32-30.72,33.15s12.05,33.15,30,33.15c21.19,0,30.68-16.81,30.68-33.47
		C822.64,236.78,810.6,223.59,792.69,223.59z M792.34,278.32c-12.55,0-17-11.77-17-21.84c0-5,1.22-21.32,16.98-21.32
		c12.49,0,16.94,11.05,16.94,21.39C809.26,263.09,807.61,278.32,792.34,278.32z"/>
	<path class="st1" d="M874.6,251.06c0,5.96,0,11.71,0.14,16.92c-4.42-7.57-11.33-18.91-17.65-29.28c-3.04-5-5.87-9.64-8.06-13.27
		l-0.58-0.97h-14.82v64.56h12.44v-25.15c0-7.33-0.02-14.4-0.15-20.26c7.25,12.51,21.11,35.65,26.36,44.44l0.58,0.97h14.14v-64.56
		h-12.4V251.06z"/>
	<path class="st1" d="M924.56,249.39L924.56,249.39c-10.98-2.64-12.18-4.59-12.18-8.11c0-5.46,4.87-6.6,8.95-6.6
		c6.41,0,9.74,2.41,10.8,7.81l0.32,1.61h12.98l-0.22-2.2c-0.9-8.85-7.56-18.32-23.57-18.32c-13.7,0-22.54,7.3-22.54,18.59
		c0,9.92,6.09,15.43,21.01,19.03c12.29,2.96,13.24,5.97,13.24,9.91c0,5.04-3.56,7.59-10.58,7.59c-7.41,0-11.52-2.91-12.94-9.17
		l-0.35-1.56h-13.01l0.3,2.27c0.79,5.87,4.84,19.54,25.38,19.54c18.05,0,24.49-10.15,24.49-19.65
		C946.63,259.2,940.23,253.19,924.56,249.39z"/>
	<g>
		<path class="st1" d="M475.58,434.08c1.05-1.23,2-2.53,2.85-3.89l-4.49-4.78c-1.11,1.56-2.16,2.94-3.14,4.13
			c-0.98,1.2-1.94,2.27-2.88,3.21l-9.77-11.34c3.18-1.86,5.5-3.73,6.95-5.62c1.45-1.89,2.18-3.98,2.18-6.27
			c0-3.03-1.04-5.44-3.11-7.23c-2.07-1.78-4.87-2.68-8.4-2.68c-3.55,0-6.45,0.99-8.7,2.96c-2.25,1.98-3.38,4.5-3.38,7.58
			c0,1.39,0.28,2.76,0.83,4.1c0.56,1.35,1.36,2.59,2.4,3.72l1.89,2.05c-3.63,2.27-6.28,4.52-7.95,6.78c-1.67,2.25-2.5,4.72-2.5,7.39
			c0,3.93,1.35,7.15,4.05,9.65c2.7,2.5,6.21,3.75,10.53,3.75c2.78,0,5.34-0.45,7.68-1.36c2.34-0.91,4.62-2.31,6.84-4.21l3.78,4.46
			h8.81l-7.88-8.94C473.4,436.45,474.53,435.3,475.58,434.08z M452.18,406.72c0.88-0.85,2.03-1.28,3.46-1.28
			c1.3,0,2.36,0.42,3.17,1.27c0.81,0.84,1.22,1.93,1.22,3.25c0,1.15-0.3,2.2-0.9,3.12c-0.6,0.93-1.5,1.75-2.69,2.45l-1.73,0.99
			l-2.34-2.82c-0.51-0.55-0.89-1.14-1.14-1.76c-0.25-0.62-0.37-1.26-0.37-1.92C450.87,408.68,451.3,407.58,452.18,406.72z
			 M458.13,440.31c-1.63,0.73-3.25,1.09-4.86,1.09c-2.16,0-3.96-0.72-5.42-2.15c-1.45-1.43-2.18-3.18-2.18-5.26
			c0-1.47,0.44-2.81,1.33-4.02c0.89-1.21,2.45-2.54,4.7-3.99l1.19-0.8l10.26,11.83C461.43,438.48,459.76,439.58,458.13,440.31z"/>
		<path class="st1" d="M533.35,401.64c-2.14-1.19-4.65-1.78-7.53-1.78h-10.7h-3.97h-3.69v46.6h7.66v-18.08h10.7
			c2.86,0,5.37-0.59,7.52-1.76c2.15-1.17,3.82-2.83,5.02-4.97c1.2-2.14,1.79-4.64,1.79-7.5c0-2.88-0.6-5.39-1.79-7.53
			C537.16,404.49,535.49,402.83,533.35,401.64z M530.55,419.14c-1.14,1.27-2.64,1.91-4.5,1.91h-10.93V407.2h10.93
			c1.88,0,3.39,0.63,4.52,1.89c1.13,1.26,1.7,2.95,1.7,5.06C532.27,416.21,531.69,417.87,530.55,419.14z"/>
		<path class="st1" d="M562.39,399.86l-17.5,46.6h8.24l3.07-8.85h17.96l3.07,8.85h8.24l-17.5-46.6H562.39z M558.74,430.28
			l6.43-18.52l6.43,18.52H558.74z"/>
		<path class="st1" d="M622.19,425.52c1.97-1.14,3.5-2.74,4.61-4.79c1.11-2.05,1.67-4.45,1.67-7.21c0-2.76-0.55-5.16-1.65-7.21
			c-1.1-2.05-2.64-3.64-4.61-4.78c-1.98-1.13-4.29-1.7-6.94-1.7h-11.79h-4.49h-3.17v46.63h7.66v-19.23H611l10.23,19.23h9.2
			l-10.95-19.81C620.43,426.37,621.35,426.01,622.19,425.52z M615.04,419.89h-11.57v-12.72h11.57c1.65,0,2.96,0.58,3.96,1.75
			c0.99,1.17,1.49,2.7,1.49,4.6c-0.02,1.92-0.52,3.47-1.51,4.63C618,419.31,616.68,419.89,615.04,419.89z"/>
		<polygon class="st1" points="636.12,407.2 649.07,407.2 649.07,446.46 656.7,446.46 656.7,407.2 669.65,407.2 669.65,399.86 
			636.12,399.86 		"/>
		<polygon class="st1" points="706.98,434.35 687.69,399.86 679.35,399.86 679.35,446.43 686.79,446.43 686.79,412.47 
			706.02,446.43 714.41,446.43 714.41,399.86 706.98,399.86 		"/>
		<polygon class="st1" points="732.42,399.86 729.25,399.86 729.25,446.46 732.42,446.46 736.91,446.46 759.82,446.46 
			759.82,439.12 736.91,439.12 736.91,426.98 756.3,426.98 756.3,419.67 736.91,419.67 736.91,407.2 759.82,407.2 759.82,399.86 
			736.91,399.86 		"/>
		<path class="st1" d="M798.79,425.52c1.97-1.14,3.5-2.74,4.62-4.79c1.11-2.05,1.67-4.45,1.67-7.21c0-2.76-0.55-5.16-1.65-7.21
			c-1.1-2.05-2.64-3.64-4.62-4.78s-4.29-1.7-6.94-1.7h-11.79h-4.49h-3.17v46.63h7.66v-19.23h7.53l10.23,19.23h9.2l-10.95-19.81
			C797.04,426.37,797.95,426.01,798.79,425.52z M791.64,419.89h-11.57v-12.72h11.57c1.64,0,2.96,0.58,3.96,1.75
			c0.99,1.17,1.49,2.7,1.49,4.6c-0.02,1.92-0.52,3.47-1.51,4.63C794.6,419.31,793.29,419.89,791.64,419.89z"/>
		<path class="st1" d="M848.32,426.77c-0.87-1.61-2.01-2.88-3.45-3.8s-3.02-1.62-4.76-2.12c-1.74-0.49-3.49-0.91-5.24-1.25
			c-1.77-0.36-3.42-0.75-4.95-1.15c-1.53-0.41-2.77-1.03-3.72-1.87c-0.95-0.84-1.43-2.08-1.43-3.7v-0.03c0-1.96,0.81-3.49,2.42-4.57
			c1.61-1.08,3.89-1.62,6.84-1.62c1.77,0,3.59,0.33,5.45,0.98c1.86,0.65,3.69,1.63,5.48,2.93l3.72-6.31
			c-2.27-1.6-4.65-2.81-7.15-3.64c-2.5-0.82-5-1.23-7.5-1.23c-5.36,0-9.51,1.22-12.45,3.65s-4.41,5.88-4.41,10.32v0.03
			c0,2.76,0.46,4.96,1.39,6.62c0.93,1.66,2.16,2.93,3.69,3.81c1.53,0.89,3.21,1.54,5.03,1.96c1.83,0.42,3.63,0.76,5.4,1.04
			c1.67,0.28,3.2,0.61,4.61,1.01s2.55,1.01,3.41,1.84c0.87,0.83,1.3,2.03,1.3,3.59v0.03c0,2.03-0.86,3.6-2.58,4.71
			c-1.72,1.11-4.14,1.67-7.26,1.67c-2.5,0-4.87-0.39-7.1-1.17s-4.25-1.93-6.04-3.45l-4.07,6.12c1.52,1.26,3.17,2.32,4.97,3.17
			s3.72,1.5,5.79,1.94c2.06,0.44,4.21,0.66,6.46,0.66c5.53,0,9.82-1.2,12.87-3.61c3.04-2.4,4.57-5.81,4.57-10.21v-0.06
			C849.61,430.48,849.18,428.38,848.32,426.77z"/>
	</g>
	<g>
		<path class="st2" d="M150.42,500.34h4.84v5.23c-0.81,0.66-2.19,1.07-3.62,1.07c-4.44,0-7.1-3.31-7.1-8.85
			c0-5.39,2.71-8.74,7.07-8.74c1.81,0,3.22,0.62,4.56,2l0.39,0.4l2.24-2.67l-0.31-0.32c-1.91-1.97-4.25-2.97-6.96-2.97
			c-6.58,0-11,4.97-11,12.38c0,7.49,4.25,12.33,10.83,12.33c3,0,5.7-1.02,7.41-2.81l0.14-0.15v-10.32h-8.5V500.34z"/>
		<polygon class="st2" points="172.16,499 180.83,499 180.83,495.54 172.16,495.54 172.16,489.37 182.44,489.37 182.44,485.91 
			168.25,485.91 168.25,509.78 182.78,509.78 182.78,506.32 172.16,506.32 		"/>
		<path class="st2" d="M200.45,485.49c-6.24,0-10.28,4.82-10.28,12.27c0,7.44,4.13,12.44,10.28,12.44s10.28-5,10.28-12.44
			C210.73,490.31,206.69,485.49,200.45,485.49z M200.45,506.64c-3.81,0-6.27-3.49-6.27-8.88c0-5.29,2.46-8.71,6.27-8.71
			s6.27,3.42,6.27,8.71C206.72,503.15,204.26,506.64,200.45,506.64z"/>
		<polygon class="st2" points="216.53,489.37 223.45,489.37 223.45,509.78 227.36,509.78 227.36,489.37 234.28,489.37 
			234.28,485.91 216.53,485.91 		"/>
		<polygon class="st2" points="255.8,495.49 246.16,495.49 246.16,485.91 242.25,485.91 242.25,509.78 246.16,509.78 246.16,499.03 
			255.8,499.03 255.8,509.78 259.71,509.78 259.71,485.91 255.8,485.91 		"/>
		<polygon class="st2" points="273.77,499 282.43,499 282.43,495.54 273.77,495.54 273.77,489.37 284.04,489.37 284.04,485.91 
			269.86,485.91 269.86,509.78 284.39,509.78 284.39,506.32 273.77,506.32 		"/>
		<path class="st2" d="M309.27,492.84c0-4.6-2.86-6.94-8.5-6.94h-7.66v23.87h3.91v-9.67h3.34l5.51,9.67h4.46l-5.94-10.19
			C307.54,498.59,309.27,496.2,309.27,492.84z M297.01,489.27h3.33c3.56,0,5.02,1.04,5.02,3.58c0,2.63-1.64,3.91-5.02,3.91h-3.33
			V489.27z"/>
		<path class="st2" d="M329.08,498.46L329.08,498.46c-0.29,0.83-0.56,1.67-0.83,2.51c-0.12,0.36-0.23,0.71-0.35,1.07
			c-0.1-0.31-0.21-0.62-0.31-0.92c-0.3-0.89-0.6-1.78-0.91-2.66l-4.5-12.55h-4.36v23.87h3.64v-13.09c0-1.02-0.06-2.26-0.14-3.54
			l0.75,2.17l4.45,12.16h2.63l4.43-12.17l0.75-2.16c-0.08,1.28-0.14,2.52-0.14,3.55v13.09h3.71v-23.87h-4.36L329.08,498.46z"/>
		<path class="st2" d="M352.88,485.91l-8.08,23.87h4.03l2.2-6.97h7.6l2.18,6.97h4.15l-8.08-23.87H352.88z M357.6,499.49h-5.52
			l0.89-2.83c0.67-2.07,1.28-4.12,1.86-6.24c0.66,2.32,1.26,4.32,1.88,6.23L357.6,499.49z"/>
		<polygon class="st2" points="375.65,485.91 371.74,485.91 371.74,509.78 385.63,509.78 385.63,506.32 375.65,506.32 		"/>
		<polygon class="st2" points="409.32,499 417.98,499 417.98,495.54 409.32,495.54 409.32,489.37 419.59,489.37 419.59,485.91 
			405.41,485.91 405.41,509.78 419.94,509.78 419.94,506.32 409.32,506.32 		"/>
		<path class="st2" d="M442.18,498.25c0,1.72,0.11,3.5,0.23,5.24l-1.54-2.95l-8.42-14.63h-3.8v23.87h3.76v-12.47
			c0-1.71-0.11-3.43-0.23-5.11l1.53,2.93l8.28,14.39l0.14,0.25h3.79v-23.87h-3.76V498.25z"/>
		<polygon class="st2" points="460,499 468.66,499 468.66,495.54 460,495.54 460,489.37 470.27,489.37 470.27,485.91 456.09,485.91 
			456.09,509.78 470.62,509.78 470.62,506.32 460,506.32 		"/>
		<path class="st2" d="M495.5,492.84c0-4.6-2.86-6.94-8.5-6.94h-7.66v23.87h3.91v-9.67h3.34l5.51,9.67h4.46l-5.94-10.19
			C493.77,498.59,495.5,496.2,495.5,492.84z M483.25,489.27h3.33c3.56,0,5.02,1.04,5.02,3.58c0,2.63-1.64,3.91-5.02,3.91h-3.33
			V489.27z"/>
		<path class="st2" d="M512.6,500.34h4.84v5.23c-0.81,0.66-2.19,1.07-3.62,1.07c-4.44,0-7.1-3.31-7.1-8.85
			c0-5.39,2.71-8.74,7.07-8.74c1.81,0,3.22,0.62,4.56,2l0.39,0.4l2.24-2.67l-0.31-0.32c-1.91-1.97-4.25-2.97-6.96-2.97
			c-6.58,0-11,4.97-11,12.38c0,7.49,4.25,12.33,10.83,12.33c3,0,5.7-1.02,7.41-2.81l0.14-0.15v-10.32h-8.5V500.34z"/>
		<path class="st2" d="M538.01,492.66l-0.01,0.01c-0.49,1.17-1.01,2.28-1.56,3.45l-0.32,0.69c-0.61-1.33-1.16-2.61-1.7-3.84
			l-3.22-7.06h-4.23l7.18,14.62v9.25h3.91v-9.25l7.18-14.62h-4.14L538.01,492.66z"/>
		<path class="st2" d="M577.89,505c1.6-2.23,2.87-4.89,3.75-7.91l0.19-0.64h-3.71l-0.1,0.37c-0.64,2.32-1.6,4.38-2.86,6.13
			c-1.93-1.66-3.69-3.62-4.99-5.54c2.26-1.64,4.96-3.68,4.96-6.89c0-3.06-1.96-5.03-5-5.03c-3.35,0-5.77,2.49-5.77,5.93
			c0,1.54,0.46,3.28,1.37,5.17c-2.19,1.56-4.37,3.59-4.37,6.78c0,4.02,3.07,6.83,7.47,6.83c2.49,0,4.67-0.83,6.65-2.52
			c1.74,1.2,3.48,2.06,5.06,2.5l0.46,0.13l1.09-3.34l-0.5-0.14C580.52,506.53,579.24,505.9,577.89,505z M567.42,499.48
			c1.42,2.11,3.3,4.24,5.33,6.05c-1.19,0.91-2.43,1.38-3.59,1.38c-2.33,0-4.01-1.56-4.01-3.72
			C565.15,501.65,566.32,500.41,567.42,499.48z M568.63,494.64c-0.52-1.21-0.79-2.3-0.79-3.26c0-1.67,0.95-2.83,2.31-2.83
			c1.45,0,1.66,1.27,1.66,2.02C571.81,492.25,570.27,493.51,568.63,494.64z"/>
		<polygon class="st2" points="605.24,499 613.91,499 613.91,495.54 605.24,495.54 605.24,489.37 615.51,489.37 615.51,485.91 
			601.33,485.91 601.33,509.78 615.86,509.78 615.86,506.32 605.24,506.32 		"/>
		<path class="st2" d="M638.1,498.25c0,1.72,0.11,3.5,0.23,5.24l-1.54-2.95l-8.42-14.63h-3.8v23.87h3.76v-12.47
			c0-1.71-0.11-3.43-0.23-5.11l1.53,2.93l8.28,14.39l0.14,0.25h3.79v-23.87h-3.76V498.25z"/>
		<path class="st2" d="M660.56,500.34h4.84v5.23c-0.81,0.66-2.19,1.07-3.62,1.07c-4.45,0-7.1-3.31-7.1-8.85
			c0-5.39,2.71-8.74,7.07-8.74c1.81,0,3.22,0.62,4.56,2l0.38,0.4l2.24-2.67l-0.31-0.32c-1.91-1.97-4.25-2.97-6.95-2.97
			c-6.58,0-11,4.97-11,12.38c0,7.49,4.25,12.33,10.83,12.33c3,0,5.7-1.02,7.41-2.81l0.14-0.14v-10.32h-8.5V500.34z"/>
		<rect x="678.39" y="485.91" class="st2" width="3.91" height="23.87"/>
		<path class="st2" d="M705.96,498.25c0,1.72,0.11,3.5,0.23,5.24l-1.54-2.95l-8.42-14.63h-3.79v23.87h3.76v-12.47
			c0-1.69-0.11-3.4-0.23-5.11l1.53,2.94l8.28,14.39l0.14,0.25h3.79v-23.87h-3.76V498.25z"/>
		<polygon class="st2" points="723.78,499 732.45,499 732.45,495.54 723.78,495.54 723.78,489.37 734.05,489.37 734.05,485.91 
			719.87,485.91 719.87,509.78 734.4,509.78 734.4,506.32 723.78,506.32 		"/>
		<polygon class="st2" points="747.03,499 755.7,499 755.7,495.54 747.03,495.54 747.03,489.37 757.3,489.37 757.3,485.91 
			743.12,485.91 743.12,509.78 757.65,509.78 757.65,506.32 747.03,506.32 		"/>
		<path class="st2" d="M782.54,492.84c0-4.6-2.86-6.94-8.5-6.94h-7.66v23.87h3.91v-9.67h3.34l5.51,9.67h4.46l-5.94-10.19
			C780.8,498.59,782.54,496.2,782.54,492.84z M770.28,489.27h3.33c3.57,0,5.02,1.04,5.02,3.58c0,2.63-1.64,3.91-5.02,3.91h-3.33
			V489.27z"/>
		<rect x="791.08" y="485.91" class="st2" width="3.91" height="23.87"/>
		<path class="st2" d="M818.65,498.25c0,1.72,0.11,3.5,0.23,5.24l-1.54-2.95l-8.42-14.63h-3.79v23.87h3.76v-12.47
			c0-1.69-0.11-3.4-0.23-5.11l1.53,2.94l8.28,14.39l0.14,0.25h3.79v-23.87h-3.76V498.25z"/>
		<path class="st2" d="M841.11,496.93v3.41h4.84v5.23c-0.81,0.66-2.19,1.07-3.62,1.07c-4.45,0-7.1-3.31-7.1-8.85
			c0-5.39,2.71-8.74,7.07-8.74c1.81,0,3.22,0.62,4.56,2l0.38,0.4l2.24-2.67l-0.31-0.32c-1.91-1.97-4.25-2.97-6.95-2.97
			c-6.58,0-11,4.97-11,12.38c0,7.49,4.25,12.33,10.83,12.33c3,0,5.7-1.02,7.41-2.81l0.14-0.14v-10.32H841.11z"/>
	</g>
	<g>
		<g>
			<path class="st1" d="M364.18,299.87c-8.28,44.12-51.3,85.51-97.37,87.14c-19.1,0.67-35.12-5.62-39.13-7.27
				c-12.52-5.17-23.92-13.09-34.09-23.74c-24.32-25.47-33.09-55.88-26.54-90.03c10.15-52.92,59.5-89.46,116.48-78.95
				c19.23,3.55,32.77,11.44,38.33,15.07c6.13,4,25.77,17.21,36.61,42.64c2.9,6.8,4.45,12.79,5.32,17.01c8.16,0,16.32,0,24.49,0
				c-0.12-0.95-0.34-2.49-0.67-4.35c-2.77-15.42-8.89-26.26-11.87-31.54c-19.28-34.14-50.55-50.75-50.55-50.75
				c-15.96-8.54-33.44-13.1-51.54-14.04c-47.3,0.21-80.12,15.27-104.98,46.36c-44.79,56.02-33.24,134.25,17.34,175.19
				c26.42,21.38,56.7,30.48,90.2,27.93c30.85-2.34,57.18-15.27,78.9-37.45c23.6-24.1,34.1-52.59,34.3-86.08h0.01v-8.55
				c-7.96,0-15.91,0-23.87,0C365.81,282.91,365.91,290.62,364.18,299.87z"/>
			<path class="st1" d="M300.2,278.56C300.2,278.56,300.2,278.56,300.2,278.56c-12.45,0-19.9-0.01-32.35-0.01v23.79l35.44-0.16
				c1.95,0.2,2.16,1.08,0.78,3.73c-8.94,17.08-28.28,26.2-47.13,22.01c-17.08-3.8-30.63-17.79-33.41-34.51
				c-2.9-17.44,5.35-35.27,20.3-43.9c17.06-9.85,37.43-6.17,49.13,3.74c3.41,2.89,5.72,6,7.26,8.47h28.26
				c-2.24-6.02-6.61-15.27-15.22-23.85c0,0-2.98-2.96-6.17-5.4c-27.09-20.73-65.06-17.86-89.19,6.5
				c-18.42,18.59-23.87,48.08-13.54,73.3c10.03,24.52,34.53,41.3,60.7,41.58c0.27,0,0.61,0.01,1.02,0c0,0,12.58-0.08,24.77-5.35
				c14.84-6.42,32.58-24.99,38.15-49.51c1.93-8.5,1.94-15.7,1.7-20.17c-5.24-0.13-10.57-0.22-15.96-0.26
				C309.83,278.53,304.98,278.53,300.2,278.56z"/>
		</g>
	</g>
	<path class="st1" d="M502.06,167.06v-1.5h-27.69v11.56h14.98c-0.13,3.92-1.58,6.95-4.42,9.26c-3.03,2.46-7.31,3.71-12.72,3.71
		c-6.45,0-11.54-2-15.55-6.12c-3.97-4.07-5.98-9.49-5.98-16.09c0-6.48,2.01-11.81,5.98-15.83c4.01-4.07,9.08-6.05,15.47-6.05
		c3.03,0,5.81,0.56,8.24,1.66c2.42,1.09,4.64,2.8,6.59,5.06l0.92,1.06l9.78-7.36l-1-1.21c-3.17-3.85-6.83-6.75-10.9-8.63
		c-4.05-1.87-8.7-2.82-13.8-2.82c-4.82,0-9.41,0.82-13.65,2.44c-4.26,1.63-8.03,4.03-11.19,7.13c-3.29,3.17-5.81,6.88-7.48,11.03
		c-1.67,4.13-2.51,8.71-2.51,13.59c0,4.79,0.83,9.36,2.46,13.57c1.64,4.23,4.04,7.97,7.12,11.11c3.15,3.18,6.87,5.59,11.05,7.16
		c4.15,1.56,8.93,2.35,14.19,2.35c9.5,0,17-2.59,22.29-7.7c5.3-5.12,7.99-12.36,7.99-21.51c0-0.73-0.04-2.09-0.13-4.14
		C502.08,168.05,502.06,167.48,502.06,167.06z"/>
	<polygon class="st1" points="515.11,200.49 552.89,200.49 552.89,188.42 528.24,188.42 528.24,171.29 552.89,171.29 552.89,159.39 
		528.24,159.39 528.24,146.77 552.89,146.77 552.89,135.17 515.11,135.17 	"/>
	<path class="st1" d="M598.17,134.24c-19.72,0-32.97,13.47-32.97,33.52s12.93,33.52,32.18,33.52c22.74,0,32.92-17,32.92-33.84
		C630.31,147.58,617.39,134.24,598.17,134.24z M597.8,189.58c-13.46,0-18.24-11.9-18.24-22.09c0-5.06,1.31-21.56,18.21-21.56
		c13.4,0,18.18,11.17,18.18,21.63C615.95,174.19,614.18,189.58,597.8,189.58z"/>
	<path class="st1" d="M528.51,223.6c-19.72,0-32.97,13.47-32.97,33.52s12.93,33.52,32.18,33.52c22.74,0,32.92-17,32.92-33.84
		C560.65,236.95,547.73,223.6,528.51,223.6z M528.14,278.95c-13.46,0-18.24-11.9-18.24-22.09c0-5.06,1.31-21.56,18.21-21.56
		c13.41,0,18.18,11.17,18.18,21.63C546.29,263.55,544.53,278.95,528.14,278.95z"/>
	<g>
		<path class="st1" d="M499.15,345.3c-0.03-0.72-0.04-1.29-0.04-1.69v-0.98H473.3v10.22h14.47c-0.03,4.17-1.48,7.37-4.45,9.77
			c-3.01,2.45-7.25,3.69-12.58,3.69c-6.27,0-11.44-2.04-15.36-6.06c-3.92-4.03-5.91-9.36-5.91-15.87c0-6.39,1.99-11.65,5.91-15.62
			c3.92-3.97,9.06-5.98,15.28-5.98c3,0,5.74,0.55,8.15,1.64c2.4,1.09,4.6,2.77,6.53,5.01l0.6,0.7l8.7-6.55l-0.65-0.79
			c-3.02-3.66-6.5-6.42-10.36-8.2c-3.85-1.78-8.27-2.68-13.14-2.68c-4.59,0-8.97,0.78-13.01,2.33c-4.06,1.55-7.64,3.84-10.65,6.79
			c-3.13,3.02-5.52,6.55-7.11,10.49c-1.59,3.94-2.39,8.29-2.39,12.95c0,4.57,0.79,8.92,2.35,12.94c1.56,4.03,3.84,7.58,6.78,10.57
			c2.99,3.02,6.53,5.31,10.51,6.81c3.96,1.49,8.51,2.24,13.54,2.24c9.05,0,16.18-2.46,21.2-7.31c5.03-4.86,7.58-11.73,7.58-20.44
			C499.28,348.57,499.23,347.27,499.15,345.3z"/>
		<path class="st1" d="M545.47,349.51c0.41-0.19,0.81-0.39,1.2-0.61c2.95-1.64,5.29-3.97,6.94-6.92c1.64-2.93,2.47-6.36,2.47-10.2
			c0-3.87-0.82-7.31-2.45-10.22c-1.64-2.94-3.98-5.26-6.95-6.9c-2.94-1.62-6.39-2.45-10.25-2.45h-26.13v64.82h11.34v-25.68h12.1
			l12.95,25.68h13.27L545.47,349.51z M544.54,331.76c-0.02,2.73-0.74,4.83-2.18,6.41c-1.39,1.52-3.22,2.26-5.59,2.26h-15.12v-17.3
			h15.12c2.4,0,4.25,0.74,5.64,2.26C543.84,326.96,544.54,329.05,544.54,331.76z"/>
		<path class="st1" d="M679.6,312.22v38.37c0,13.74-6.5,15.59-12.85,15.59c-8.63,0-13.01-5.25-13.01-15.59v-38.37h-13.08v38.42
			c0,17.35,9.21,26.91,25.92,26.91c17.05,0,26.06-9.48,26.06-27.42v-37.91H679.6z"/>
		<path class="st1" d="M733.84,312.22h-25.38v64.56h13.04v-24.45h11.9c13.96,0,22.63-7.77,22.63-20.27
			C756.02,320,747.32,312.22,733.84,312.22z M721.5,323.67h11.57c3.64,0,9.74,1.12,9.74,8.6c0,5.79-3.29,8.61-10.05,8.61H721.5
			V323.67z"/>
		<path class="st1" d="M598.27,311.88c-19.35,0-32.36,13.22-32.36,32.9c0,19.68,12.69,32.9,31.59,32.9
			c22.32,0,32.31-16.68,32.31-33.21C629.8,324.98,617.13,311.88,598.27,311.88z M597.9,366.2c-13.21,0-17.9-11.68-17.9-21.68
			c0-4.96,1.29-21.16,17.88-21.16c13.16,0,17.84,10.97,17.84,21.23C615.72,351.09,613.98,366.2,597.9,366.2z"/>
	</g>
</g>
</svg>
