<svg width="130" id="Слой_1" data-name="Слой 1" xmlns="http://www.w3.org/2000/svg" viewBox="0 0 146 38.76"><defs><style>.cls-1{fill:#ea6527;}</style></defs><title>jucarenia</title><path class="cls-1" d="M17.34,13.36a2.47,2.47,0,0,0-1.8-.71,5,5,0,0,0-2.11.55,2.45,2.45,0,0,0-1.52,2.89c.19,1.16.46,2.36.73,3.51a28.38,28.38,0,0,1,1,7c-.07,2.74-1.05,5.7-3.6,5.83H9.93a2.57,2.57,0,0,1-2.4-1.7,4.74,4.74,0,0,1-.07-2,4.47,4.47,0,0,0,0-1.59,2.35,2.35,0,0,0-.11-.35A2.5,2.5,0,0,0,4.84,25.3,6.07,6.07,0,0,0,2.11,26,3.72,3.72,0,0,0,.37,30a10,10,0,0,0,4.44,7,9.22,9.22,0,0,0,4.84,1.43,7.83,7.83,0,0,0,1.89-.23,10,10,0,0,0,5.32-3.68,15.14,15.14,0,0,0,2.9-7.28,26.82,26.82,0,0,0-.2-8.37C19.2,16.85,18.73,14.71,17.34,13.36Z" transform="translate(-0.32 -1.22)"/><path class="cls-1" d="M37,18.61a4,4,0,0,0-1.42-.24,4.12,4.12,0,0,0-.95.11c-2.06.49-1.79,3.09-1.58,5,0,.22,0,.43.06.62.14,1.61.44,5-2.19,5.5a3.88,3.88,0,0,1-.53.06h-.1a1.71,1.71,0,0,1-1.25-.51c-.92-.95-.88-2.93-.86-3.88,0-.46.06-1,.11-1.53.18-1.92.38-4.09-.87-4.84a2.73,2.73,0,0,0-1.41-.39,2.48,2.48,0,0,0-2.19,1.22,14.83,14.83,0,0,0-1.18,6c0,2.58.2,5.51,1.62,7.71a7.5,7.5,0,0,0,6.08,3.15h.18a8.2,8.2,0,0,0,6.56-3.46c1.26-1.78,1.9-4.31,1.91-7.53C39,23.73,38.84,19.27,37,18.61Z" transform="translate(-0.32 -1.22)"/><path class="cls-1" d="M51,33.39c-.34-.32-.65-.62-.89-.89a8.68,8.68,0,0,1-2.45-6.41,9,9,0,0,1,3.61-6.51l.44-.34c1.61-1.27,4.6-3.63,3.16-5.59a2.32,2.32,0,0,0-2-1c-2.56,0-6.09,3-7.3,4.43a15.23,15.23,0,0,0-3.71,10.85,13.67,13.67,0,0,0,.33,2.15,14.23,14.23,0,0,0,4.58,7.57,12.12,12.12,0,0,0,3.57,2.1,4.43,4.43,0,0,0,1.35.24,2.06,2.06,0,0,0,1.73-.8C54.93,37.23,52.65,35,51,33.39Z" transform="translate(-0.32 -1.22)"/><path class="cls-1" d="M70.2,32.93a4.88,4.88,0,0,0,1-3.42,21.23,21.23,0,0,0-1.81-8v0c-.84-1.91-2.07-4.26-4.23-5.42a4.26,4.26,0,0,0-2-.55c-2.61,0-4.65,2.7-5.63,4.31a28.64,28.64,0,0,0-3.64,9.77,5.52,5.52,0,0,0,.17,3.2,2.24,2.24,0,0,0,2,1.4,1.87,1.87,0,0,0,.76-.17,3.41,3.41,0,0,0,1.31-1.25,10.55,10.55,0,0,0,.84-1.64,7.57,7.57,0,0,1,1.45-2.41,2.41,2.41,0,0,1,1.67-.8c1.38,0,2.45,1.53,3.32,3,.75,1.29,1.47,2.37,2.77,2.6a3.5,3.5,0,0,0,.54,0A2,2,0,0,0,70.2,32.93ZM64.48,22.58a1.76,1.76,0,0,1-1.66,1.32,1.62,1.62,0,0,1-1-.39,2.15,2.15,0,0,1-.47-2.33A1.68,1.68,0,0,1,62.82,20a1.65,1.65,0,0,1,.57.11A2.15,2.15,0,0,1,64.48,22.58Z" transform="translate(-0.32 -1.22)"/><path class="cls-1" d="M146.29,31.91a21.37,21.37,0,0,0-2.4-7.92c-1-1.85-2.38-4.1-4.62-5.1a4.4,4.4,0,0,0-1.8-.41c-2.74,0-4.66,2.95-5.57,4.72a28.6,28.6,0,0,0-2.92,10,5.64,5.64,0,0,0,.4,3.18,2.29,2.29,0,0,0,1.94,1.26,1.7,1.7,0,0,0,.87-.24,3.29,3.29,0,0,0,1.22-1.34,11,11,0,0,0,.72-1.69,7.44,7.44,0,0,1,1.27-2.51,2.32,2.32,0,0,1,1.74-.93c1.32,0,2.46,1.41,3.4,2.79.84,1.22,1.64,2.25,3,2.39h.34a2.08,2.08,0,0,0,1.62-.67A4.79,4.79,0,0,0,146.29,31.91ZM139,25.49a1.73,1.73,0,0,1-1.67,1.44,1.57,1.57,0,0,1-1-.31,2.15,2.15,0,0,1-.61-2.38A1.62,1.62,0,0,1,137.3,23a1.53,1.53,0,0,1,.47.07A2.12,2.12,0,0,1,139,25.49Z" transform="translate(-0.32 -1.22)"/><path class="cls-1" d="M80.66,28.45c0-2.26-.1-5.07,1.79-6.72A6.22,6.22,0,0,1,86,20.55c.49-.06.95-.11,1.4-.21a3.45,3.45,0,0,0,2.47-1.87,2.49,2.49,0,0,0-.18-2.33A2.76,2.76,0,0,0,88.45,15a4.24,4.24,0,0,0-1.72-.38c-2.48,0-4.33,2.38-5,3.41a30.44,30.44,0,0,0-2,3.75l-.29.66-.17-.7a12,12,0,0,0-.4-1.39l0-.12A3.23,3.23,0,0,0,76.53,18a3.94,3.94,0,0,0-.77-.07,3.43,3.43,0,0,0-3.26,1.87c-.25.61.16,1.38.57,2.12a7.85,7.85,0,0,1,.47,1,16.06,16.06,0,0,1,.51,6.29C74,30,74,30.86,74,31.7c0,1.11.25,4.72,2.8,4.72a3.88,3.88,0,0,0,1.06-.17c2.94-.9,2.89-4.75,2.85-7.31Z" transform="translate(-0.32 -1.22)"/><path class="cls-1" d="M94,34.57c-.19-.59-.87-.66-1.73-.7l-.37,0a3.63,3.63,0,0,1-2-.58,1.53,1.53,0,0,1-.71-1.51,1.75,1.75,0,0,1,1.26-1.32,7.46,7.46,0,0,1,1.74-.25,4.22,4.22,0,0,0,2.39-.62,2.89,2.89,0,0,0,1-1.65,4.6,4.6,0,0,0-.2-2.83,4.38,4.38,0,0,0-.43-.77,4.63,4.63,0,0,0-3.89-1.94,5.89,5.89,0,0,0-3,.82A8.46,8.46,0,0,0,84,29.33a7.57,7.57,0,0,0,1.68,5.55A6,6,0,0,0,89.88,37h.3c1.11,0,3-.33,3.67-1.25A1.3,1.3,0,0,0,94,34.57Zm-4.75-8.81a1.46,1.46,0,0,1,1.31-1,1.37,1.37,0,0,1,.52.1A1.82,1.82,0,0,1,92,27a1.48,1.48,0,0,1-1.42,1.1,1.43,1.43,0,0,1-.93-.36A1.82,1.82,0,0,1,89.26,25.76Z" transform="translate(-0.32 -1.22)"/><path class="cls-1" d="M118.41,26.32c0-3.06.08-7.26-2.21-9.6a2.13,2.13,0,0,0-1.56-.7,3.28,3.28,0,0,0-2.92,2.83,12.89,12.89,0,0,0,.62,4.6c.15.57.31,1.16.43,1.74,0,.11.58,2.86-.15,3.75a.76.76,0,0,1-.61.3,2,2,0,0,1-1.22-.62c-2-1.79-4.17-6.73-5.12-9.37l0-.09c-.38-1.07-.86-2.39-1.94-2.76a3.51,3.51,0,0,0-1.15-.21,2.7,2.7,0,0,0-2,.86c-1.52,1.53-2.18,4.88-2.16,7.53v1.7a28.17,28.17,0,0,0,.73,8.09c.29,1,1,2.66,2.48,2.66h0a3.14,3.14,0,0,0,1.58-.51,2,2,0,0,0,.93-2c0-.1,0-.23,0-.39-.15-2.47-.13-5,1.2-5.15h.12c.81,0,1.29.94,1.57,1.51l0,0c.2.39.4.81.59,1.22,1.06,2.23,2.15,4.53,4.53,5.32a4.67,4.67,0,0,0,1.41.25C117.93,37.31,118.37,28.9,118.41,26.32Z" transform="translate(-0.32 -1.22)"/><path class="cls-1" d="M124.93,20.39a3.21,3.21,0,0,0-2.41,1.06,5.63,5.63,0,0,0-1,3l0,.2a34.93,34.93,0,0,0-.31,4.22,5.89,5.89,0,0,0,1.14,4.19l0,0a2.23,2.23,0,0,0,1.57.77,1.62,1.62,0,0,0,1-.38c1.53-1.25,2.07-3.9,2.47-5.83l.07-.36c.4-1.92.67-3.91-.07-5.45A2.69,2.69,0,0,0,124.93,20.39Z" transform="translate(-0.32 -1.22)"/><path class="cls-1" d="M127,13.75a2.06,2.06,0,0,0-1-.29,3.33,3.33,0,0,0-2.55,1.77,1.85,1.85,0,0,0,0,2.17,2.92,2.92,0,0,0,1.79.6h.39c.47,0,2.77-.09,2.82-1.9A2.83,2.83,0,0,0,127,13.75Z" transform="translate(-0.32 -1.22)"/><path class="cls-1" d="M57.22,7l.25,0h.08l.07,0A8.36,8.36,0,0,1,59,9.43c.13.36.25.76.37,1.14a16,16,0,0,0,.69,2c.28.61,1.14.69,1.94.69h.57c.57,0,1.15,0,1.7.07s1.12.07,1.68.07h.08c.76,0,1.08-.68,1.45-1.64,0-.11.08-.22.13-.33a13,13,0,0,0,.42-2A10.09,10.09,0,0,1,69,6l.07-.09h.12a1.72,1.72,0,0,0,1.86-1.5,1.48,1.48,0,0,0-.35-1.16,1.92,1.92,0,0,0-1.43-.59,1.67,1.67,0,0,0-1.6,1,1.4,1.4,0,0,0-.06.86,2.74,2.74,0,0,0,.4.87l.19.16L68,5.7a9.71,9.71,0,0,0-1.91,3.44l-.26.72-.21-.74c-.3-1.07-.62-2.45-.88-3.55-.1-.41-.18-.79-.26-1.11l0-.19.18-.09a1.47,1.47,0,0,0,.78-1.49A1.7,1.7,0,0,0,63.7,1.22a1.53,1.53,0,0,0-1.58,1.55,1.56,1.56,0,0,0,1,1.53l.21.07L62.18,9.71l-.33-.42a12.51,12.51,0,0,0-3.24-2.78l-.2-.12.1-.21a1.64,1.64,0,0,0-.44-1.91A1.14,1.14,0,0,0,57.33,4a1.77,1.77,0,0,0-1.47.88,1.28,1.28,0,0,0-.06,1.33A1.67,1.67,0,0,0,57.22,7Z" transform="translate(-0.32 -1.22)"/></svg>
