<svg viewBox="0 0 1585.9 339.7" class="icon icon-logo" fill="#fff" width="185" height="50"
     xmlns="http://www.w3.org/2000/svg">
  <g id="Layer_1">
    <g>
      <path style="fill-rule:evenodd;clip-rule:evenodd;fill:#FFFFFF"
            d="M1371.8,12.8c71.3,0,142.6-0.1,213.9,0c-5.9,8.1-13.5,15.4-22.8,19.6c-6.3,2.7-13,4.5-19.8,5.2    c-17.3,0.1-34.5,0-51.8,0c0.1,32.3,0,64.6,0,96.9c0.3,2.1-0.9,4.5-3.3,4.2c-6.3,0.1-12.6,0.1-18.9,0c-2.4,0.2-3.7-2.2-3.3-4.2    c0-32.3,0-64.6,0-96.9c-14.6,0-29.2,0-43.7,0c-15.2,0.7-31-4.5-41.8-15.3C1377.2,19.5,1374.4,16.2,1371.8,12.8L1371.8,12.8z     M942.4,12.9c49.2-0.3,98.5,0,147.7-0.1c9.3-0.3,18.9,2.6,26.1,8.7c7.7,6.3,12.5,16.1,12.6,26.1c0,15,0,30,0,45    c-0.2,6.6,0.7,13.3-1.1,19.8c-3,12.6-13.8,22.8-26.3,25.7c-6,1.7-12.2,1.2-18.3,1.2c-44,0-88,0-132,0c-6.3,0.2-12.6-0.1-18.5-2.3    c-11.1-3.9-20.2-13.5-22.8-25.1c-1.2-4.7-1-9.5-1-14.3c0-13.3,0-26.7,0-40c0.1-6.6-0.5-13.4,1.6-19.8    C914.6,23.9,928.1,14,942.4,12.9L942.4,12.9z M942.4,38c-4.3,1.1-8.3,4.8-8.3,9.5c0,18.7,0,37.4,0,56.1    c-0.2,5.8,5.5,10.5,11.1,10.5c49,0,98,0,147,0c5.6,0,11.2-4.7,11-10.5c0-18.7,0-37.4,0-56.1c0-5.7-5.7-9.9-11.1-9.8    c-41.3,0-82.7,0-124,0C959.5,37.9,950.9,37.3,942.4,38L942.4,38z M682,12.8c56.3-0.1,112.7,0,169-0.1c6.3,0.1,12.6-0.5,18.8,1.2    c11.2,2.4,21.3,10.2,26.2,20.6c3.4,7.6,4.4,16.3,2.3,24.4c-2.7,12-12.1,22.1-23.6,26.3c-5,1.8-10.4,2.7-15.7,2.7    c-51.2,0-102.4,0-153.7,0c0,15.5,0,31.1,0,46.6c0.3,2-1.1,4.2-3.3,3.9c-6.3,0.1-12.7,0.1-19,0c-2.2,0.2-3.5-1.9-3.3-3.9    c0-22.7-0.1-45.3,0.1-68c-0.2-2.3,2.2-3.4,4.2-3.2c58.7,0,117.4,0,176.1,0c5.4,0.2,10.7-2.9,13.1-7.7c1.9-3.6,1.6-8.3-0.7-11.7    c-2.7-4.1-7.6-6.5-12.5-6.3c-43.7,0-87.3,0-131,0c-7.8,0.3-15.4-1.9-22.6-4.6C696.4,29.1,688.4,21.4,682,12.8L682,12.8z     M458.2,28.7c7.6-10.2,20.2-16.1,32.8-15.9c58.9,0.1,117.7-0.1,176.6,0.1c-5.7,7.7-12.8,14.7-21.4,18.9    c-6.9,3.2-14.4,5.3-22.1,5.9c-45,0-90.1,0-135.1,0c-5.6-0.1-10.9,3.9-12.4,9.3c-1.5,5.6,1.5,11.8,6.6,14.4    c3.6,2.1,7.8,1.6,11.8,1.6c42.7,0,85.3,0,128,0c5.8,0,11.7-0.4,17.4,1.2c16.4,3.9,29.9,19.1,30,36.3c0.2,16.7-12.2,32.2-28.2,36.4    c-7.2,2.3-14.8,1.5-22.2,1.6c-55.5,0-111.1,0.1-166.6-0.1c6.2-8.3,14-15.8,23.7-19.9c7.6-3,15.7-5.3,23.9-4.9c43.3,0,86.7,0,130,0    c7.1,0.3,13.9-6,13.6-13.2c0-7-6.7-12.9-13.6-12.5c-47,0-94,0-141.1,0c-16.7,0.1-33.3-11.5-37.8-27.8    C449.1,49.6,451.3,37.5,458.2,28.7L458.2,28.7z M62.5,33c20-19.8,47.4-31.8,75.6-32.8c92.4,0.1,184.8-0.2,277.1,0    c-7.7,11-17.2,20.7-27.8,28.8c-14.3,11-31.9,16.6-49.5,19.8c-4.6,0.7-9.2,1.6-13.9,1.5c-61.4,0-122.7,0-184.1,0    c-23.4,0.8-45.5,16-55.2,37.2c-8.3,17.6-8,39.1,0.9,56.5c9.5,19.2,29.2,33.1,50.6,35.2c20.9,0.1,41.8,0,62.7,0.1    c13.8-0.3,27.5,2.6,40.6,6.8c23.7,7.5,43.4,24.3,58.3,43.8c-50.9,0.1-101.9,0-152.9,0.1c-11.1,0.1-22.3-1.3-33-4.3    c-28-7.7-52.6-26.6-67.5-51.5c-13.5-22.2-18.9-49-15.4-74.6C32.5,74.4,44.5,50.7,62.5,33L62.5,33z M1146.8,13    c54.7-0.1,109.5,0,164.2,0c9,0.1,18.4-0.8,27,2.5c16.9,5.7,28,24.6,24.5,42.1c-2.7,16.1-17.4,28.3-33.3,30.5    c13.2,15.3,26.5,30.5,39.6,45.9c1.9,2.1-0.2,5.4-2.9,4.9c-7.9-0.1-16,0.4-23.9-0.3c-15.4-16.3-30.3-33.3-45.4-50    c-42.6-0.3-85.1,0-127.7-0.1c0,15.1,0,30.1,0,45.2c-0.1,1.4,0.1,3-0.8,4.2c-1.4,1.3-3.5,0.9-5.2,1c-5.7-0.1-11.3,0.2-17-0.1    c-2.2-0.1-2.8-2.5-2.6-4.3c0-22.3,0-44.6,0-66.9c-0.3-2.1,1.4-4.1,3.6-3.8c59-0.1,118,0,177,0c6.7,0.1,13.4-5.3,13.8-12.2    c0.6-7.1-5.9-13.5-12.9-13.7c-45,0-90,0-135.1,0c-8.4-0.8-16.6-3.1-24-7.1C1158.4,26.4,1152,20,1146.8,13z"></path>
      <path style="fill-rule:evenodd;clip-rule:evenodd;fill:#AFCB2C"
            d="M1043.8,202.3c58.8-0.3,117.5,0,176.3-0.1c9.1-0.2,18.4,2.1,25.8,7.6c12.4,8.9,18.5,25.8,14.1,40.5    c-4.1,14.3-17.6,24.8-32.1,26.8c3.8,5.6,8.8,10.3,13,15.6c8.3,9.6,16.7,19.3,25.1,29c1,1.2,2.4,2.7,1.7,4.4c-0.4,1.6-2.2,2-3.6,2    c-6.3,0.1-12.7,0-19,0.1c-2.1-0.1-4.6,0.4-6-1.6c-14.8-16.3-29.5-32.6-44.2-48.9c-42.5-0.1-85.1,0-127.6,0c0,15.3,0,30.6,0,45.9    c0.1,1.8-0.3,4.3-2.6,4.4c-5.5,0.4-11.1,0-16.6,0.2c-1.9-0.1-4.1,0.3-5.6-1c-1-1.7-0.7-3.7-0.8-5.6c0.1-21.7-0.1-43.4,0.1-65.1    c-0.3-2.6,2.2-3.9,4.4-3.6c56.7,0,113.3,0,169.9,0c4-0.1,8.4,0.6,12.1-1.3c5.2-2.4,9.1-8.2,7.8-14.1c-1.4-6.2-7.5-10.8-13.9-10.5    c-43,0-86,0-129,0c-11,0.6-22.1-2.4-31.7-7.8C1054.5,214.9,1048.5,209,1043.8,202.3L1043.8,202.3z M972.6,202.2    c6.7-0.4,13.5-0.2,20.3-0.1c2.5-0.3,3.4,2.4,3.2,4.4c0,39,0,78.1,0,117.1c0.2,2-0.7,4.7-3.2,4.5c-6.5,0.1-13.1,0.2-19.6,0    c-2.4,0.1-3.2-2.5-3-4.4c0-39,0-78.1,0-117.1C970.2,204.9,970.6,202.6,972.6,202.2L972.6,202.2z M713.3,202    c59.6,0.1,119.2,0,178.8,0.1c14.9,0.3,29.6,9.4,35.1,23.4c4.4,10.8,3.4,23.7-2.8,33.6c-5.4,8.8-14.6,15.1-24.7,17.2    c-5.8,1.4-11.8,1-17.8,1c-48.7,0-97.4-0.1-146,0c-0.1,15.5,0,30.9,0,46.4c0.1,1.9-0.6,4.2-2.9,4.1c-6.6,0.2-13.3,0.2-19.9,0    c-2.2,0-2.8-2.4-2.7-4.2c0-22.3,0-44.6,0-66.9c-0.3-2.2,1.3-4.2,3.6-3.9c59-0.1,118.1,0,177.1-0.1c7.4,0.2,14.7-6.4,13.9-14.1    c-0.6-6.8-7.4-11.8-14-11.6c-42.7-0.1-85.3,0-128,0c-14.9,0.7-30.5-4.5-41.2-15.2C718.8,208.8,716,205.4,713.3,202L713.3,202z     M452.1,229.4c4.5-16,20.6-27.2,37-27.4c59.6,0,119.3,0,179,0c-5.6,7.8-12.8,14.8-21.5,19.1c-6.7,3.1-14,5.3-21.4,5.8    c-45.3,0-90.7,0-136,0c-4.8-0.1-9.5,2.6-11.7,6.8c-4.8,8.5,3.3,19.3,12.7,18.5c44.7,0,89.4,0,134.1,0c4.6,0,9.3-0.3,13.8,0.7    c12.8,2.4,24.3,11.3,29.5,23.3c3.8,8.7,3.7,18.8,0,27.6c-5.8,14.4-20.9,24-36.3,23.9c-59.4-0.1-118.8,0.1-178.2-0.1    c6.1-8.3,14-15.8,23.6-19.8c7.5-2.9,15.5-5.1,23.6-4.9c43.3,0,86.7,0,130,0c6.1,0.4,12.3-3.7,13.9-9.7c1.6-5.5-1.2-11.8-6.3-14.4    c-3.5-2.1-7.7-1.6-11.6-1.6c-43.3,0-86.7,0-130,0c-4.6,0-9.3,0.2-13.8-0.8c-11.9-2.2-22.6-10.2-28.1-21.1    C450.3,247.5,449.5,238,452.1,229.4L452.1,229.4z M117.3,109.9c47.3,0.1,94.5,0,141.8,0c9.6,0,19.4-0.3,28.9,1.1    c26.9,3.6,52.2,17.2,70.1,37.5c21.7,24.1,32.2,57.6,28.2,89.8c-3.7,33-22.7,63.9-50.4,82.2c-20.1,13.5-44.6,20.3-68.8,19.1    c-89-0.1-178.1,0.2-267.1,0.1c10.5-14.4,23.4-27.4,39.1-36.1c15.4-8.1,32.7-12.4,50-13.9c62-0.1,124.1,0,186.1,0    c16.2-0.6,32-8,43.2-19.7c11.2-11.5,17.8-27.3,18.1-43.3c0.4-14.2-4.1-28.4-12.5-39.8c-10.7-14.6-27.7-24.6-45.8-26.1    c-19.7-0.1-39.4,0-59.1,0c-18.8,0.6-37.6-3.7-54.9-11.2C145.5,140.6,129.8,126.2,117.3,109.9L117.3,109.9z M1371.8,202.1    c71.3-0.1,142.7,0,214-0.1c-6.3,8.2-13.8,15.8-23.4,19.9c-6.1,2.5-12.7,4.5-19.3,5c-16,0-32,0-48,0c-1.3,0.1-3.9-0.5-3.5,1.7    c0,31.9,0,63.9,0,95.8c0.2,2.1-1.4,4-3.5,3.7c-6.5,0-13,0.2-19.5-0.1c-2.2-0.1-2.6-2.6-2.5-4.4c-0.1-32.2,0-64.5-0.1-96.7    c-15,0.1-29.9,0-44.9,0c-14.5,0.6-29.5-4.2-40-14.3C1377.6,209.4,1374.3,206,1371.8,202.1L1371.8,202.1z M1307.5,202.1    c5.5-0.3,11.1,0,16.6-0.1c1.9,0.1,4-0.3,5.6,1c0.9,1.4,0.7,3,0.8,4.5c0,38.7,0,77.4,0,116.1c0.1,1.9-0.5,4.4-2.8,4.4    c-6.7,0.2-13.5,0.2-20.2,0c-2.3,0-2.9-2.6-2.7-4.4c0-39,0-78.1,0-117.1C1304.6,204.7,1305.2,202.2,1307.5,202.1z"></path>
    </g>
  </g>
  <g id="Layer_1_00000148632600684024556890000000112471430782222741_"></g>
  <g id="Layer_1_00000034787952423431855460000005270369961153801393_"></g>
</svg>
