<?xml version="1.0" encoding="UTF-8"?>
<svg id="_Ñëîé_1" data-name="Ñëîé_1" xmlns="http://www.w3.org/2000/svg" viewBox="0 0 200 35">
  <defs>
    <style>
      .cls-1 {
        fill: #ea5d27;
      }

      .cls-2 {
        fill: #fff;
      }
    </style>
  </defs>
  <g id="Logo_standard">
    <rect class="cls-1" x="52.71" y=".45" width="10.87" height="10.83"/>
    <polygon class="cls-2" points="52.71 11.28 52.71 34.55 63.58 34.55 63.58 16.13 52.71 11.28"/>
    <path class="cls-2" d="M140.38,12.47c0,2.09-1.7,3.78-3.79,3.78h-6.2v-7.56h6.2c2.1,0,3.79,1.69,3.79,3.78ZM151.25,12.47c0-6.63-5.39-12.02-12.06-12.02h-19.67v34.1h10.87v-18.3l10.16,18.3h10.7l-6.37-11.48c3.79-2.02,6.37-6.01,6.37-10.59Z"/>
    <polygon class="cls-2" points="108.66 .45 74.46 .45 74.46 11.28 85.72 11.28 85.72 34.55 97.39 34.55 97.39 11.28 108.66 11.28 108.66 .45"/>
    <polygon class="cls-2" points="32.57 .45 22.61 21.73 12.66 .45 .67 .45 16.62 34.55 28.62 34.55 44.56 .45 32.57 .45"/>
    <polygon class="cls-2" points="200.22 34.55 184.27 .45 172.63 .45 156.68 34.55 168.33 34.55 178.46 12.89 182.57 21.68 174.34 21.68 178.36 30.26 186.58 30.26 188.59 34.55 200.22 34.55"/>
  </g>
</svg>